<mxfile host="app.diagrams.net" modified="2022-10-14T12:48:14.791Z" agent="5.0 (Windows NT 10.0; Win64; x64) AppleWebKit/537.36 (KHTML, like Gecko) Chrome/106.0.0.0 Safari/537.36" etag="XBNC6fihFTbKKWd3Ra0L" version="20.4.1" type="github">
  <diagram id="9WLuW88EG-J2ouL35sIg" name="Page-1">
    <mxGraphModel dx="1038" dy="571" grid="1" gridSize="10" guides="1" tooltips="1" connect="1" arrows="1" fold="1" page="1" pageScale="1" pageWidth="850" pageHeight="1100" math="0" shadow="0">
      <root>
        <mxCell id="0" />
        <mxCell id="1" parent="0" />
        <mxCell id="-8DjUhkEHJ3-2uhuXnQX-1" value="NGINX" style="rounded=0;whiteSpace=wrap;html=1;" parent="1" vertex="1">
          <mxGeometry x="365" y="140" width="120" height="60" as="geometry" />
        </mxCell>
        <mxCell id="-8DjUhkEHJ3-2uhuXnQX-2" value="CLIENT" style="ellipse;whiteSpace=wrap;html=1;" parent="1" vertex="1">
          <mxGeometry x="365" y="20" width="120" height="80" as="geometry" />
        </mxCell>
        <mxCell id="-8DjUhkEHJ3-2uhuXnQX-4" value="/api/auth/v1/blabla" style="shape=process;whiteSpace=wrap;html=1;backgroundOutline=1;" parent="1" vertex="1">
          <mxGeometry x="80" y="265" width="140" height="30" as="geometry" />
        </mxCell>
        <mxCell id="-8DjUhkEHJ3-2uhuXnQX-5" value="/api/user/v1/blabla" style="shape=process;whiteSpace=wrap;html=1;backgroundOutline=1;" parent="1" vertex="1">
          <mxGeometry x="355" y="265" width="140" height="30" as="geometry" />
        </mxCell>
        <mxCell id="-8DjUhkEHJ3-2uhuXnQX-6" value="/api/product/v1/blabla" style="shape=process;whiteSpace=wrap;html=1;backgroundOutline=1;" parent="1" vertex="1">
          <mxGeometry x="580" y="265" width="160" height="30" as="geometry" />
        </mxCell>
        <mxCell id="-8DjUhkEHJ3-2uhuXnQX-7" value="Auth Service&lt;br&gt;8080" style="rounded=1;whiteSpace=wrap;html=1;" parent="1" vertex="1">
          <mxGeometry x="90" y="340" width="120" height="60" as="geometry" />
        </mxCell>
        <mxCell id="-8DjUhkEHJ3-2uhuXnQX-8" value="User Service&lt;br&gt;8081" style="rounded=1;whiteSpace=wrap;html=1;" parent="1" vertex="1">
          <mxGeometry x="365" y="340" width="120" height="60" as="geometry" />
        </mxCell>
        <mxCell id="-8DjUhkEHJ3-2uhuXnQX-9" value="Product Service&lt;br&gt;8082" style="rounded=1;whiteSpace=wrap;html=1;" parent="1" vertex="1">
          <mxGeometry x="600" y="340" width="120" height="60" as="geometry" />
        </mxCell>
        <mxCell id="-8DjUhkEHJ3-2uhuXnQX-10" value="" style="endArrow=classic;html=1;rounded=0;exitX=0.5;exitY=1;exitDx=0;exitDy=0;entryX=0.5;entryY=0;entryDx=0;entryDy=0;" parent="1" source="-8DjUhkEHJ3-2uhuXnQX-2" target="-8DjUhkEHJ3-2uhuXnQX-1" edge="1">
          <mxGeometry width="50" height="50" relative="1" as="geometry">
            <mxPoint x="400" y="310" as="sourcePoint" />
            <mxPoint x="450" y="260" as="targetPoint" />
          </mxGeometry>
        </mxCell>
        <mxCell id="-8DjUhkEHJ3-2uhuXnQX-11" value="" style="endArrow=classic;html=1;rounded=0;exitX=0.5;exitY=1;exitDx=0;exitDy=0;entryX=0.5;entryY=0;entryDx=0;entryDy=0;" parent="1" source="-8DjUhkEHJ3-2uhuXnQX-1" target="-8DjUhkEHJ3-2uhuXnQX-5" edge="1">
          <mxGeometry width="50" height="50" relative="1" as="geometry">
            <mxPoint x="400" y="310" as="sourcePoint" />
            <mxPoint x="450" y="260" as="targetPoint" />
          </mxGeometry>
        </mxCell>
        <mxCell id="-8DjUhkEHJ3-2uhuXnQX-12" value="" style="endArrow=classic;html=1;rounded=0;exitX=0.5;exitY=1;exitDx=0;exitDy=0;entryX=0.5;entryY=0;entryDx=0;entryDy=0;" parent="1" source="-8DjUhkEHJ3-2uhuXnQX-1" target="-8DjUhkEHJ3-2uhuXnQX-4" edge="1">
          <mxGeometry width="50" height="50" relative="1" as="geometry">
            <mxPoint x="400" y="310" as="sourcePoint" />
            <mxPoint x="450" y="260" as="targetPoint" />
          </mxGeometry>
        </mxCell>
        <mxCell id="-8DjUhkEHJ3-2uhuXnQX-13" value="" style="endArrow=classic;html=1;rounded=0;exitX=0.5;exitY=1;exitDx=0;exitDy=0;entryX=0.5;entryY=0;entryDx=0;entryDy=0;" parent="1" source="-8DjUhkEHJ3-2uhuXnQX-1" target="-8DjUhkEHJ3-2uhuXnQX-6" edge="1">
          <mxGeometry width="50" height="50" relative="1" as="geometry">
            <mxPoint x="435" y="210" as="sourcePoint" />
            <mxPoint x="160" y="275" as="targetPoint" />
          </mxGeometry>
        </mxCell>
        <mxCell id="-8DjUhkEHJ3-2uhuXnQX-14" value="" style="endArrow=classic;html=1;rounded=0;exitX=0.5;exitY=1;exitDx=0;exitDy=0;entryX=0.5;entryY=0;entryDx=0;entryDy=0;" parent="1" source="-8DjUhkEHJ3-2uhuXnQX-4" target="-8DjUhkEHJ3-2uhuXnQX-7" edge="1">
          <mxGeometry width="50" height="50" relative="1" as="geometry">
            <mxPoint x="435" y="210" as="sourcePoint" />
            <mxPoint x="435" y="275" as="targetPoint" />
          </mxGeometry>
        </mxCell>
        <mxCell id="-8DjUhkEHJ3-2uhuXnQX-15" value="" style="endArrow=classic;html=1;rounded=0;exitX=0.5;exitY=1;exitDx=0;exitDy=0;entryX=0.5;entryY=0;entryDx=0;entryDy=0;" parent="1" source="-8DjUhkEHJ3-2uhuXnQX-5" target="-8DjUhkEHJ3-2uhuXnQX-8" edge="1">
          <mxGeometry width="50" height="50" relative="1" as="geometry">
            <mxPoint x="160" y="305" as="sourcePoint" />
            <mxPoint x="160" y="350" as="targetPoint" />
          </mxGeometry>
        </mxCell>
        <mxCell id="-8DjUhkEHJ3-2uhuXnQX-16" value="" style="endArrow=classic;html=1;rounded=0;exitX=0.5;exitY=1;exitDx=0;exitDy=0;entryX=0.5;entryY=0;entryDx=0;entryDy=0;" parent="1" source="-8DjUhkEHJ3-2uhuXnQX-6" target="-8DjUhkEHJ3-2uhuXnQX-9" edge="1">
          <mxGeometry width="50" height="50" relative="1" as="geometry">
            <mxPoint x="435" y="305" as="sourcePoint" />
            <mxPoint x="435" y="350" as="targetPoint" />
          </mxGeometry>
        </mxCell>
        <mxCell id="-8DjUhkEHJ3-2uhuXnQX-17" value="goapotik.com/api/product/v1/add" style="text;html=1;strokeColor=none;fillColor=none;align=center;verticalAlign=middle;whiteSpace=wrap;rounded=0;" parent="1" vertex="1">
          <mxGeometry x="495" y="45" width="195" height="30" as="geometry" />
        </mxCell>
        <mxCell id="-8DjUhkEHJ3-2uhuXnQX-18" value="" style="endArrow=classic;startArrow=classic;html=1;rounded=0;exitX=1;exitY=0.5;exitDx=0;exitDy=0;entryX=0;entryY=0.5;entryDx=0;entryDy=0;" parent="1" source="-8DjUhkEHJ3-2uhuXnQX-7" target="-8DjUhkEHJ3-2uhuXnQX-8" edge="1">
          <mxGeometry width="50" height="50" relative="1" as="geometry">
            <mxPoint x="400" y="310" as="sourcePoint" />
            <mxPoint x="450" y="260" as="targetPoint" />
          </mxGeometry>
        </mxCell>
        <mxCell id="-8DjUhkEHJ3-2uhuXnQX-19" value="gRPC" style="edgeLabel;html=1;align=center;verticalAlign=middle;resizable=0;points=[];" parent="-8DjUhkEHJ3-2uhuXnQX-18" vertex="1" connectable="0">
          <mxGeometry x="0.1665" relative="1" as="geometry">
            <mxPoint x="-10" y="-10" as="offset" />
          </mxGeometry>
        </mxCell>
        <mxCell id="-8DjUhkEHJ3-2uhuXnQX-20" value="" style="endArrow=classic;startArrow=classic;html=1;rounded=0;exitX=1;exitY=0.5;exitDx=0;exitDy=0;entryX=0;entryY=0.5;entryDx=0;entryDy=0;" parent="1" source="-8DjUhkEHJ3-2uhuXnQX-8" target="-8DjUhkEHJ3-2uhuXnQX-9" edge="1">
          <mxGeometry width="50" height="50" relative="1" as="geometry">
            <mxPoint x="220" y="380" as="sourcePoint" />
            <mxPoint x="375" y="380" as="targetPoint" />
          </mxGeometry>
        </mxCell>
        <mxCell id="-8DjUhkEHJ3-2uhuXnQX-21" value="gRPC" style="edgeLabel;html=1;align=center;verticalAlign=middle;resizable=0;points=[];" parent="-8DjUhkEHJ3-2uhuXnQX-20" vertex="1" connectable="0">
          <mxGeometry x="0.1665" relative="1" as="geometry">
            <mxPoint x="-10" y="-10" as="offset" />
          </mxGeometry>
        </mxCell>
      </root>
    </mxGraphModel>
  </diagram>
</mxfile>
